<svg width="36" height="36" viewBox="0 0 36 36" fill="none" xmlns="http://www.w3.org/2000/svg">
    <path d="M20.7194 18L34.7443 3.97502C34.9279 3.79763 35.0744 3.58543 35.1752 3.3508C35.276 3.11618 35.3291 2.86383 35.3313 2.60849C35.3335 2.35314 35.2848 2.09991 35.1881 1.86357C35.0914 1.62724 34.9487 1.41252 34.7681 1.23196C34.5875 1.05139 34.3728 0.9086 34.1365 0.811906C33.9001 0.715212 33.6469 0.666555 33.3916 0.668774C33.1362 0.670993 32.8839 0.724043 32.6492 0.82483C32.4146 0.925616 32.2024 1.07212 32.025 1.25579L18 15.2806L3.97502 1.25579C3.61233 0.90549 3.12655 0.711654 2.62233 0.716036C2.11811 0.720417 1.63577 0.922666 1.27922 1.27922C0.922666 1.63577 0.720417 2.11811 0.716036 2.62233C0.711654 3.12655 0.90549 3.61233 1.25579 3.97502L15.2806 18L1.25579 32.025C1.07212 32.2024 0.925616 32.4146 0.82483 32.6492C0.724043 32.8839 0.670993 33.1362 0.668774 33.3916C0.666555 33.6469 0.715212 33.9001 0.811906 34.1365C0.9086 34.3728 1.05139 34.5875 1.23196 34.7681C1.41252 34.9487 1.62724 35.0914 1.86357 35.1881C2.09991 35.2848 2.35314 35.3335 2.60849 35.3313C2.86383 35.3291 3.11618 35.276 3.3508 35.1752C3.58543 35.0744 3.79763 34.9279 3.97502 34.7443L18 20.7194L32.025 34.7443C32.3877 35.0946 32.8735 35.2884 33.3777 35.284C33.8819 35.2796 34.3643 35.0774 34.7208 34.7208C35.0774 34.3643 35.2796 33.8819 35.284 33.3777C35.2884 32.8735 35.0946 32.3877 34.7443 32.025L20.7194 18Z"
          fill="#000"/>
</svg>