<svg xmlns="http://www.w3.org/2000/svg" width="22" height="20" viewBox="0 0 22 20" fill="none">
    <path d="M19.8338 3.49103C16.8576 -0.372951 11.0004 1.90704 11.0004 5.83102C11.0004 1.90704 5.14282 -0.373138 2.16622 3.49103C-0.910172 7.4858 2.12202 14.4836 11.0002 18.5034C19.878 14.4836 22.9102 7.4858 19.8338 3.49103Z" fill="var(--heart-inside)"/>
    <path d="M19.8338 3.49103L20.6261 2.88089L20.626 2.88082L19.8338 3.49103ZM2.16622 3.49103L1.37401 2.88079L1.37394 2.88089L2.16622 3.49103ZM11.0002 18.5034L10.5877 19.4144C10.8499 19.5331 11.1505 19.5331 11.4127 19.4144L11.0002 18.5034ZM20.626 2.88082C18.8487 0.573301 16.1828 0.100459 14.001 0.786601C11.8608 1.45967 10.0004 3.32468 10.0004 5.83102H12.0004C12.0004 4.41338 13.0686 3.1764 14.601 2.69448C16.0919 2.22563 17.8427 2.54478 19.0415 4.10124L20.626 2.88082ZM12.0004 5.83102C12.0004 3.32465 10.1399 1.45961 7.99953 0.786528C5.81761 0.100371 3.15156 0.573202 1.37401 2.88079L2.95844 4.10128C4.15749 2.54469 5.90853 2.22553 7.39955 2.69441C8.93214 3.17637 10.0004 4.41341 10.0004 5.83102H12.0004ZM1.37394 2.88089C-0.472034 5.27792 -0.392051 8.47221 1.22002 11.4624C2.83105 14.4506 6.00032 17.3373 10.5877 19.4144L11.4127 17.5924C7.12191 15.6497 4.33599 13.0276 2.98048 10.5133C1.626 8.00091 1.72809 5.69891 2.95851 4.10118L1.37394 2.88089ZM11.4127 19.4144C15.9999 17.3373 19.1691 14.4506 20.78 11.4624C22.392 8.4722 22.472 5.27791 20.6261 2.88089L19.0415 4.10118C20.2719 5.69892 20.374 8.00092 19.0196 10.5133C17.6641 13.0276 14.8783 15.6497 10.5877 17.5924L11.4127 19.4144Z" fill="#000"/>
</svg>